# xmcd
#
# Track frame offsets: 
#        225
#        12535
#        24543
#        36875
#        52386
#        66642
#        78749
#        95192
#        106281
#        121297
#
# Disc length: 1860 seconds
#
# Revision: 0
# Processed by: cddbd v1.4PL0 Copyright (c) Steve Scherf et al.
# Submitted via: ExactAudioCopy v0.90a11
#
DISCID=9607410a
DTITLE=David Allan Coe - Country and Western
DYEAR=1900
DGENRE=
TTITLE0=Home On The Range
TTITLE1=Skip To My Lou
TTITLE2=Shenandoah
TTITLE3=Strawberry Roan
TTITLE4=Pretty Red Wing
TTITLE5=Sweet Betsy From Pike
TTITLE6=Yellow Rose Of Texas
TTITLE7=Oh, My Darlin' Clementine
TTITLE8=Cowboy's Prayer
TTITLE9=O Bury Me Not On The Lone Prairie
EXTD=
EXTT0=
EXTT1=
EXTT2=
EXTT3=
EXTT4=
EXTT5=
EXTT6=
EXTT7=
EXTT8=
EXTT9=
PLAYORDER=
